<svg width="300" height="177" viewBox="0 0 300 177" fill="none" xmlns="http://www.w3.org/2000/svg">
<rect width="300" height="177" fill="white"/>
<path d="M44.6023 98.2386C43.8864 98.2273 43.1705 98.0909 42.4545 97.8295C41.7386 97.5682 41.0852 97.1278 40.4943 96.5085C39.9034 95.8835 39.429 95.0398 39.071 93.9773C38.7131 92.9091 38.5341 91.5682 38.5341 89.9545C38.5341 88.4091 38.679 87.0398 38.9688 85.8466C39.2585 84.6477 39.679 83.6392 40.2301 82.821C40.7813 81.9972 41.446 81.3722 42.2244 80.946C43.0085 80.5199 43.892 80.3068 44.875 80.3068C45.8523 80.3068 46.7216 80.5028 47.483 80.8949C48.25 81.2812 48.875 81.821 49.358 82.5142C49.8409 83.2074 50.1534 84.0057 50.2955 84.9091H48.2159C48.0227 84.125 47.6477 83.4744 47.0909 82.9574C46.5341 82.4403 45.7955 82.1818 44.875 82.1818C43.5227 82.1818 42.4574 82.7699 41.679 83.946C40.9063 85.1222 40.517 86.7727 40.5114 88.8977H40.6477C40.9659 88.4148 41.3438 88.0028 41.7812 87.6619C42.2244 87.3153 42.7131 87.0483 43.2472 86.8608C43.7813 86.6733 44.3466 86.5795 44.9432 86.5795C45.9432 86.5795 46.858 86.8295 47.6875 87.3295C48.517 87.8239 49.1818 88.5085 49.6818 89.3835C50.1818 90.2528 50.4318 91.25 50.4318 92.375C50.4318 93.4545 50.1903 94.4432 49.7074 95.3409C49.2244 96.233 48.5455 96.9432 47.6705 97.4716C46.8011 97.9943 45.7784 98.25 44.6023 98.2386ZM44.6023 96.3636C45.3182 96.3636 45.9602 96.1847 46.5284 95.8267C47.1023 95.4687 47.554 94.9886 47.8835 94.3864C48.2188 93.7841 48.3864 93.1136 48.3864 92.375C48.3864 91.6534 48.2244 90.9972 47.9006 90.4062C47.5824 89.8097 47.142 89.3352 46.5795 88.983C46.0227 88.6307 45.3864 88.4545 44.6705 88.4545C44.1307 88.4545 43.6278 88.5625 43.1619 88.7784C42.696 88.9886 42.2869 89.2784 41.9347 89.6477C41.5881 90.017 41.3153 90.4403 41.1165 90.9176C40.9176 91.3892 40.8182 91.8864 40.8182 92.4091C40.8182 93.1023 40.9801 93.75 41.304 94.3523C41.6335 94.9545 42.0824 95.4403 42.6506 95.8097C43.2244 96.179 43.875 96.3636 44.6023 96.3636Z" fill="black"/>
<path d="M74.2614 98.2386C73.2614 98.2386 72.3608 98.0398 71.5597 97.642C70.7585 97.2443 70.1165 96.6989 69.6335 96.0057C69.1506 95.3125 68.8864 94.5227 68.8409 93.6364H70.8864C70.9659 94.4261 71.3239 95.0795 71.9602 95.5966C72.6023 96.108 73.3693 96.3636 74.2614 96.3636C74.9773 96.3636 75.6136 96.196 76.1705 95.8608C76.733 95.5256 77.1733 95.0653 77.4915 94.4801C77.8153 93.8892 77.9773 93.2216 77.9773 92.4773C77.9773 91.7159 77.8097 91.0369 77.4744 90.4403C77.1449 89.8381 76.6903 89.3636 76.1108 89.017C75.5313 88.6705 74.8693 88.4943 74.125 88.4886C73.5909 88.483 73.0426 88.5653 72.4801 88.7358C71.9176 88.9006 71.4545 89.1136 71.0909 89.375L69.1136 89.1364L70.1705 80.5455H79.2386V82.4205H71.9432L71.3295 87.5682H71.4318C71.7898 87.2841 72.2386 87.0483 72.7784 86.8608C73.3182 86.6733 73.8807 86.5795 74.4659 86.5795C75.5341 86.5795 76.4858 86.8352 77.321 87.3466C78.1619 87.8523 78.821 88.5455 79.2983 89.4261C79.7812 90.3068 80.0227 91.3125 80.0227 92.4432C80.0227 93.5568 79.7727 94.5511 79.2727 95.4261C78.7784 96.2955 78.0966 96.983 77.2273 97.4886C76.358 97.9886 75.3693 98.2386 74.2614 98.2386Z" fill="black"/>
<path d="M104.705 98.2386C103.58 98.2386 102.577 98.0455 101.696 97.6591C100.821 97.2727 100.125 96.7358 99.608 96.0483C99.0966 95.3551 98.8182 94.5511 98.7727 93.6364H100.92C100.966 94.1989 101.159 94.6847 101.5 95.0938C101.841 95.4972 102.287 95.8097 102.838 96.0312C103.389 96.2528 104 96.3636 104.67 96.3636C105.42 96.3636 106.085 96.233 106.665 95.9716C107.244 95.7102 107.699 95.3466 108.028 94.8807C108.358 94.4148 108.523 93.875 108.523 93.2614C108.523 92.6193 108.364 92.054 108.045 91.5653C107.727 91.071 107.261 90.6847 106.648 90.4062C106.034 90.1278 105.284 89.9886 104.398 89.9886H103V88.1136H104.398C105.091 88.1136 105.699 87.9886 106.222 87.7386C106.75 87.4886 107.162 87.1364 107.457 86.6818C107.759 86.2273 107.909 85.6932 107.909 85.0795C107.909 84.4886 107.778 83.9744 107.517 83.5369C107.256 83.0994 106.886 82.7585 106.409 82.5142C105.938 82.2699 105.381 82.1477 104.739 82.1477C104.136 82.1477 103.568 82.2585 103.034 82.4801C102.506 82.696 102.074 83.0114 101.739 83.4261C101.403 83.8352 101.222 84.3295 101.193 84.9091H99.1477C99.1818 83.9943 99.4574 83.1932 99.9744 82.5057C100.491 81.8125 101.168 81.2727 102.003 80.8864C102.844 80.5 103.767 80.3068 104.773 80.3068C105.852 80.3068 106.778 80.5256 107.551 80.9631C108.324 81.3949 108.918 81.9659 109.332 82.6761C109.747 83.3864 109.955 84.1534 109.955 84.9773C109.955 85.9602 109.696 86.7983 109.179 87.4915C108.668 88.1847 107.972 88.6648 107.091 88.9318V89.0682C108.193 89.25 109.054 89.7187 109.673 90.4744C110.293 91.2244 110.602 92.1534 110.602 93.2614C110.602 94.2102 110.344 95.0625 109.827 95.8182C109.315 96.5682 108.616 97.1591 107.73 97.5909C106.844 98.0227 105.835 98.2386 104.705 98.2386Z" fill="black"/>
<path d="M136.943 80.5455V98H134.83V82.7614H134.727L130.466 85.5909V83.4432L134.83 80.5455H136.943Z" fill="black"/>
<path d="M164.398 98.2386C163.227 98.2386 162.193 98.0312 161.295 97.6165C160.403 97.196 159.707 96.6193 159.207 95.8864C158.707 95.1477 158.46 94.3068 158.466 93.3636C158.46 92.625 158.605 91.9432 158.901 91.3182C159.196 90.6875 159.599 90.1619 160.111 89.7415C160.628 89.3153 161.205 89.0455 161.841 88.9318V88.8295C161.006 88.6136 160.341 88.1449 159.847 87.4233C159.352 86.696 159.108 85.8693 159.114 84.9432C159.108 84.0568 159.332 83.2642 159.787 82.5653C160.241 81.8665 160.866 81.3153 161.662 80.9119C162.463 80.5085 163.375 80.3068 164.398 80.3068C165.409 80.3068 166.313 80.5085 167.108 80.9119C167.903 81.3153 168.528 81.8665 168.983 82.5653C169.443 83.2642 169.676 84.0568 169.682 84.9432C169.676 85.8693 169.423 86.696 168.923 87.4233C168.429 88.1449 167.773 88.6136 166.955 88.8295V88.9318C167.585 89.0455 168.153 89.3153 168.659 89.7415C169.165 90.1619 169.568 90.6875 169.869 91.3182C170.17 91.9432 170.324 92.625 170.33 93.3636C170.324 94.3068 170.068 95.1477 169.562 95.8864C169.062 96.6193 168.366 97.196 167.474 97.6165C166.588 98.0312 165.563 98.2386 164.398 98.2386ZM164.398 96.3636C165.188 96.3636 165.869 96.2358 166.443 95.9801C167.017 95.7244 167.46 95.3636 167.773 94.8977C168.085 94.4318 168.244 93.8864 168.25 93.2614C168.244 92.6023 168.074 92.0199 167.739 91.5142C167.403 91.0085 166.946 90.6108 166.366 90.321C165.793 90.0312 165.136 89.8864 164.398 89.8864C163.653 89.8864 162.989 90.0312 162.403 90.321C161.824 90.6108 161.366 91.0085 161.031 91.5142C160.702 92.0199 160.54 92.6023 160.545 93.2614C160.54 93.8864 160.69 94.4318 160.997 94.8977C161.31 95.3636 161.756 95.7244 162.335 95.9801C162.915 96.2358 163.602 96.3636 164.398 96.3636ZM164.398 88.0795C165.023 88.0795 165.577 87.9545 166.06 87.7045C166.548 87.4545 166.932 87.1051 167.21 86.6562C167.489 86.2074 167.631 85.6818 167.636 85.0795C167.631 84.4886 167.491 83.9744 167.219 83.5369C166.946 83.0937 166.568 82.7528 166.085 82.5142C165.602 82.2699 165.04 82.1477 164.398 82.1477C163.744 82.1477 163.173 82.2699 162.685 82.5142C162.196 82.7528 161.818 83.0937 161.551 83.5369C161.284 83.9744 161.153 84.4886 161.159 85.0795C161.153 85.6818 161.287 86.2074 161.56 86.6562C161.838 87.1051 162.222 87.4545 162.71 87.7045C163.199 87.9545 163.761 88.0795 164.398 88.0795Z" fill="black"/>
<path d="M190.352 98L198.159 82.5568V82.4205H189.159V80.5455H200.341V82.5227L192.568 98H190.352Z" fill="black"/>
<path d="M218.807 98V96.4659L224.568 90.1591C225.244 89.4205 225.801 88.7784 226.239 88.233C226.676 87.6818 227 87.1648 227.21 86.6818C227.426 86.1932 227.534 85.6818 227.534 85.1477C227.534 84.5341 227.386 84.0028 227.091 83.554C226.801 83.1051 226.403 82.7585 225.898 82.5142C225.392 82.2699 224.824 82.1477 224.193 82.1477C223.523 82.1477 222.938 82.2869 222.438 82.5653C221.943 82.8381 221.56 83.2216 221.287 83.7159C221.02 84.2102 220.886 84.7898 220.886 85.4545H218.875C218.875 84.4318 219.111 83.5341 219.582 82.7614C220.054 81.9886 220.696 81.3864 221.509 80.9545C222.327 80.5227 223.244 80.3068 224.261 80.3068C225.284 80.3068 226.19 80.5227 226.98 80.9545C227.77 81.3864 228.389 81.9687 228.838 82.7017C229.287 83.4347 229.511 84.25 229.511 85.1477C229.511 85.7898 229.395 86.4176 229.162 87.0312C228.935 87.6392 228.537 88.3182 227.969 89.0682C227.406 89.8125 226.625 90.7216 225.625 91.7955L221.705 95.9886V96.125H229.818V98H218.807Z" fill="black"/>
<path d="M248.398 94.4205V92.6818L256.068 80.5455H257.33V83.2386H256.477L250.682 92.4091V92.5455H261.011V94.4205H248.398ZM256.614 98V93.892V93.0824V80.5455H258.625V98H256.614Z" fill="black"/>
</svg>
